PathFileType	4	(X/Y/Z)	./resultDataOpenSim/trcMotMarkerGrf/sub09/qtm-02-06.trc
DataRate	CameraRate	NumFrames	NumMarkers	Units	OrigDataRate	OrigDataStartFrame	OrigNumFrames
250.000000	250.000000	5	24	m	250.000000	122	485
Frame#	Time	L.Toe.Tip			R.Toe.Tip			L.Ankle.Lat			R.Ankle.Lat			L.Ankle.Med			R.Ankle.Med			L.Heel			R.Heel			L.Knee.Lat			R.Knee.Lat			L.Knee.Med			R.Knee.Med			L.Thigh.Upper			R.Thigh.Upper			L.ASIS			R.ASIS			V.Sacral			L.Acromium			R.Acromium			C7			L.Elbow			R.Elbow			L.Wrist.Lat			R.Wrist.Lat
		X1	Y1	Z1	X2	Y2	Z2	X3	Y3	Z3	X4	Y4	Z4	X5	Y5	Z5	X6	Y6	Z6	X7	Y7	Z7	X8	Y8	Z8	X9	Y9	Z9	X10	Y10	Z10	X11	Y11	Z11	X12	Y12	Z12	X13	Y13	Z13	X14	Y14	Z14	X15	Y15	Z15	X16	Y16	Z16	X17	Y17	Z17	X18	Y18	Z18	X19	Y19	Z19	X20	Y20	Z20	X21	Y21	Z21	X22	Y22	Z22	X23	Y23	Z23	X24	Y24	Z24

122	0.484	-0.28451201	0.082594301	0.0020649832	-0.67868329	0.039382664	0.11161961	-0.4353876	0.098312657	-0.030659457	-0.82509393	0.056879421	0.14075595	-0.4120404	0.1193534	0.063336551	-0.81287307	0.093449866	0.049431927	-0.49783724	0.050931857	0.020171938	-0.89474455	0.036698018	0.089301014	-0.42688791	0.51782815	-0.067948828	-0.68852281	0.49606453	0.2036762	-0.42781951	0.51363492	0.058530402	-0.7058393	0.48756334	0.074564247	-0.61884468	0.89086095	-0.11316671	-0.66251786	0.90159165	0.25659708	-0.55251275	0.97724121	-0.048431007	-0.55528004	0.98167339	0.1915122	-0.73026015	1.0425014	0.071009123	-0.55209616	1.4281415	-0.096817469	-0.5578117	1.4342404	0.23264995	-0.61901924	1.4858074	0.070666941	-0.7263886	1.1075288	-0.14430237	-0.68383886	1.088561	0.32334143	-0.64210219	0.86354672	-0.20572116	-0.49925861	0.88041005	0.31244396
123	0.488	-0.2649022	0.0849694	0.0028775414	-0.67859801	0.039294519	0.11162031	-0.41617681	0.096445578	-0.030383046	-0.82492498	0.05701423	0.14048238	-0.3937132	0.11841081	0.063789448	-0.81253911	0.093493613	0.049181718	-0.47736015	0.04750965	0.020419627	-0.89468436	0.036927339	0.089024772	-0.41986414	0.5160356	-0.068240924	-0.68645105	0.49534618	0.20371383	-0.42062689	0.51197539	0.058354855	-0.7033798	0.48713911	0.074673844	-0.61207114	0.88921322	-0.11301461	-0.65654718	0.90061314	0.25649556	-0.54550512	0.97573012	-0.048169543	-0.54892747	0.98044834	0.19183892	-0.7242252	1.0410323	0.070737504	-0.54587318	1.4268421	-0.096967478	-0.55158294	1.4331169	0.23253338	-0.61280674	1.4845225	0.070544421	-0.72092347	1.1068798	-0.14412135	-0.67709066	1.0872349	0.32360944	-0.63831112	0.86261205	-0.20696266	-0.49147417	0.87982871	0.31227203
124	0.492	-0.24558016	0.087541679	0.0037971767	-0.67850416	0.039216188	0.11164072	-0.39711522	0.094845559	-0.030111726	-0.82475033	0.057198524	0.14017543	-0.37556416	0.11776091	0.064232461	-0.81219418	0.093559473	0.048920364	-0.45704708	0.044412288	0.020596401	-0.89463104	0.037172369	0.088726129	-0.41287377	0.51415257	-0.068475294	-0.6840554	0.49448926	0.20362594	-0.41377813	0.51010323	0.058077972	-0.70078891	0.48668316	0.074828122	-0.60521601	0.88747657	-0.11282465	-0.65057037	0.89958136	0.25637418	-0.53848516	0.97414831	-0.047888072	-0.54257778	0.97917117	0.19218188	-0.71801444	1.039454	0.070443915	-0.53967527	1.425493	-0.097148343	-0.54535989	1.4319094	0.2324066	-0.60658277	1.4831621	0.070399742	-0.71544939	1.106135	-0.1440863	-0.67031578	1.0858191	0.32383991	-0.63433264	0.86167691	-0.20812234	-0.48372194	0.87914791	0.31212035
125	0.496	-0.22658536	0.090281759	0.0047647965	-0.67840349	0.03916591	0.1116857	-0.378269	0.093518298	-0.029863927	-0.82460143	0.057403933	0.1398596	-0.35759384	0.11737976	0.064615419	-0.81182494	0.093644739	0.048644013	-0.43693168	0.041639351	0.020717331	-0.89457429	0.037449116	0.088398023	-0.40590571	0.51218927	-0.068627221	-0.6810955	0.49370671	0.20362308	-0.40719851	0.50803014	0.057759773	-0.69795919	0.48622183	0.075038784	-0.59827987	0.88564974	-0.1126229	-0.64458854	0.89850085	0.25624282	-0.53146169	0.97249757	-0.04758494	-0.53623986	0.97784695	0.19254219	-0.71160523	1.0377649	0.070129279	-0.53348897	1.4240819	-0.097348619	-0.53914968	1.4306281	0.23227924	-0.60034638	1.4817212	0.070232678	-0.71001038	1.1053042	-0.14416848	-0.66352091	1.0843164	0.32404069	-0.63031024	0.86070639	-0.20925047	-0.47601958	0.8783646	0.31199157
126	0.5	-0.20794619	0.093164989	0.0057320692	-0.67830958	0.03913662	0.11174057	-0.35968728	0.092462221	-0.029655683	-0.82451075	0.057600555	0.13956089	-0.3398474	0.11720915	0.064906148	-0.8114351	0.093749168	0.048367128	-0.4170438	0.03918686	0.020798612	-0.89450576	0.037775291	0.088040318	-0.3989709	0.51012902	-0.068717486	-0.67782319	0.49328586	0.20399834	-0.40075971	0.50578124	0.05747453	-0.69486441	0.48577157	0.075268054	-0.59130166	0.88374038	-0.11242369	-0.63860034	0.89737073	0.25611331	-0.52444294	0.97078217	-0.047267298	-0.52990731	0.97647819	0.19291746	-0.7050012	1.0359661	0.069797049	-0.52728119	1.4225888	-0.097541835	-0.53295279	1.4292804	0.23215936	-0.5940952	1.4802062	0.070050519	-0.70462174	1.1043967	-0.14424671	-0.65670026	1.0827286	0.32420377	-0.62628755	0.85965837	-0.210369	-0.46836239	0.87748131	0.31188911
